<svg width="472" height="472" viewBox="0 0 472 472" fill="none" xmlns="http://www.w3.org/2000/svg">
<path d="M140.662 300.255C129.153 263.423 181.183 210.117 181.183 210.117C181.183 210.117 170.35 196.838 171.897 187.371C173.017 180.522 180.225 169.611 180.225 169.611C180.225 169.611 183.862 164.145 185.378 162.044C188.194 158.14 189.265 156.963 192.35 153.267C195.634 149.332 198.412 146.305 200.231 144.489C209.677 135.058 220.354 129.168 231.835 135.984C241.099 141.484 242.809 161.257 242.809 161.257C242.809 161.257 247.006 130.2 262.226 125.033C269.404 122.596 274.668 122.062 281.642 125.033C295.263 130.835 292.617 161.257 292.617 161.257C292.617 161.257 312.993 169.216 315.41 180.632C318.421 194.861 292.617 210.117 292.617 210.117C292.617 210.117 339.244 257.596 332.294 292.673C323.529 336.907 277.01 350.881 231.835 349.958C191.272 349.129 152.74 338.906 140.662 300.255Z" fill="#00E184"/>
</svg>
