<svg width="472" height="472" viewBox="0 0 472 472" fill="none" xmlns="http://www.w3.org/2000/svg">
<path d="M156.01 138.692C170.02 124.899 187.85 122.586 205.725 130.771C231.242 142.456 222.056 172.7 222.016 200.765C222.004 209.028 220.566 220.341 219.631 226.836C220.222 226.644 220.817 226.463 221.416 226.291C225.124 218.767 232.582 206.047 242.054 202.442C256.081 197.103 268.974 199.342 279.784 209.755C287.307 217.001 294.208 224.423 290.589 234.221C289.988 235.847 288.893 237.331 287.53 238.664C289.049 240.08 290.495 241.589 291.857 243.188L298.197 250.633C309.88 264.35 314.01 282.97 309.223 300.334L309.117 300.731C304.776 316.483 293.59 329.446 278.655 336.041L257.066 345.575C248.112 349.53 238.246 350.999 228.531 349.816L223.155 349.16C209.063 347.442 196.199 340.294 187.307 329.215C174.984 313.863 171.922 293.053 179.286 274.796L179.276 274.8L180.562 271.616C172.482 268.617 150.595 259.51 142.72 246.309C135.961 234.979 131.377 226.005 135.194 213.377C138.113 203.719 141.908 196.507 151.481 193.32C160.035 190.471 170.161 198.784 176.553 205.421C164.123 190.198 139.138 155.301 156.01 138.692Z" fill="#FF521E"/>
</svg>
