<svg width="472" height="472" viewBox="0 0 472 472" fill="none" xmlns="http://www.w3.org/2000/svg">
<path d="M237.037 177.086C246.517 174.673 256.985 173.33 267.99 173.33C310.746 173.33 345.407 193.535 345.407 218.459C345.407 231.015 336.609 242.372 322.413 250.553C322.573 252.536 322.659 254.561 322.659 256.617C322.659 281.541 310.503 301.746 295.508 301.746C295.507 301.746 295.505 301.745 295.504 301.745C295.24 326.5 268.239 346.508 234.969 346.508C204.332 346.508 179.011 329.542 174.988 307.526C147.079 303.507 126 285.201 126 263.222C126 250.833 132.698 239.611 143.54 231.456C142.159 227.126 141.41 222.513 141.41 217.726C141.41 192.802 161.615 172.597 186.539 172.597C197.85 172.597 208.189 176.759 216.108 183.634L199.381 128.568L245.977 126L237.037 177.086Z" fill="#4F8DFF"/>
</svg>
