<svg width="472" height="472" viewBox="0 0 472 472" fill="none" xmlns="http://www.w3.org/2000/svg">
<g clip-path="url(#clip0_651_3945)">
<path d="M125.5 166.5L223.5 209" stroke="black" stroke-width="5" stroke-linecap="round"/>
<path d="M223 189L235 210" stroke="black" stroke-width="5" stroke-linecap="round"/>
<path d="M245 126.5L239 203.5" stroke="black" stroke-width="5" stroke-linecap="round"/>
<path d="M327 112.5L241 210.5" stroke="black" stroke-width="5" stroke-linecap="round"/>
<path d="M396 137L249 210.5" stroke="black" stroke-width="5" stroke-linecap="round"/>
<path d="M223 222L126.5 269.5" stroke="black" stroke-width="5" stroke-linecap="round"/>
<path d="M59.0002 241.5L231 215.5" stroke="black" stroke-width="5" stroke-linecap="round"/>
<path d="M231 222L113.5 355" stroke="black" stroke-width="5" stroke-linecap="round"/>
<path d="M238 217L231.5 307" stroke="black" stroke-width="5" stroke-linecap="round"/>
<path d="M244.5 217L357 265" stroke="black" stroke-width="5" stroke-linecap="round"/>
<path d="M377.5 194L255 214.5" stroke="black" stroke-width="5" stroke-linecap="round"/>
<path d="M245.5 226C245.5 226 287.5 257 294 311.5C300.5 366 281 393.5 281 393.5" stroke="black" stroke-width="5" stroke-linecap="round"/>
<g style="mix-blend-mode:multiply">
<circle cx="2.94013" cy="2.94013" r="2.1055" transform="matrix(0.468192 -0.883627 -0.883627 -0.468192 114.819 375.711)" fill="#000004" stroke="#000004" stroke-width="1.66925"/>
<circle cx="2.94013" cy="2.94013" r="2.1055" transform="matrix(-0.944636 -0.328122 -0.328122 0.944636 403.323 182.672)" fill="#000004" stroke="#000004" stroke-width="1.66925"/>
<circle cx="2.94013" cy="2.94013" r="2.1055" transform="matrix(0.468192 -0.883627 -0.883627 -0.468192 53.7961 258.53)" fill="#000004" stroke="#000004" stroke-width="1.66925"/>
<circle cx="2.94013" cy="2.94013" r="2.1055" transform="matrix(0.468192 -0.883627 -0.883627 -0.468192 203.196 176.454)" fill="#000004" stroke="#000004" stroke-width="1.66925"/>
<circle cx="2.94013" cy="2.94013" r="2.1055" transform="matrix(0.468192 -0.883627 -0.883627 -0.468192 245.448 330.128)" fill="#000004" stroke="#000004" stroke-width="1.66925"/>
<circle cx="2.94013" cy="2.94013" r="2.1055" transform="matrix(0.468192 -0.883627 -0.883627 -0.468192 336.465 123.812)" fill="#000004" stroke="#000004" stroke-width="1.66925"/>
<circle cx="2.94013" cy="2.94013" r="2.1055" transform="matrix(0.468192 -0.883627 -0.883627 -0.468192 120.297 173.05)" fill="#000004" stroke="#000004" stroke-width="1.66925"/>
<circle cx="2.94013" cy="2.94013" r="2.1055" transform="matrix(0.468192 -0.883627 -0.883627 -0.468192 369.043 275.834)" fill="#000004" stroke="#000004" stroke-width="1.66925"/>
<circle cx="2.94013" cy="2.94013" r="2.1055" transform="matrix(0.468192 -0.883627 -0.883627 -0.468192 248.579 113.848)" fill="#000004" stroke="#000004" stroke-width="1.66925"/>
<circle cx="2.94013" cy="2.94013" r="2.1055" transform="matrix(0.468192 -0.883627 -0.883627 -0.468192 116.964 368.526)" fill="#000004" stroke="#000004" stroke-width="1.66925"/>
<circle cx="2.94013" cy="2.94013" r="2.1055" transform="matrix(-0.944636 -0.328122 -0.328122 0.944636 395.898 181.649)" fill="#000004" stroke="#000004" stroke-width="1.66925"/>
<circle cx="2.94013" cy="2.94013" r="2.1055" transform="matrix(0.468192 -0.883627 -0.883627 -0.468192 55.939 251.346)" fill="#000004" stroke="#000004" stroke-width="1.66925"/>
<circle cx="2.94013" cy="2.94013" r="2.1055" transform="matrix(0.468192 -0.883627 -0.883627 -0.468192 231.196 188.949)" fill="#000004" stroke="#000004" stroke-width="1.66925"/>
<circle cx="2.94013" cy="2.94013" r="2.1055" transform="matrix(0.468192 -0.883627 -0.883627 -0.468192 247.589 322.946)" fill="#000004" stroke="#000004" stroke-width="1.66925"/>
<circle cx="2.94013" cy="2.94013" r="2.1055" transform="matrix(0.468192 -0.883627 -0.883627 -0.468192 338.607 116.628)" fill="#000004" stroke="#000004" stroke-width="1.66925"/>
<circle cx="2.94013" cy="2.94013" r="2.1055" transform="matrix(0.468192 -0.883627 -0.883627 -0.468192 129.035 163.634)" fill="#000004" stroke="#000004" stroke-width="1.66925"/>
<circle cx="2.94013" cy="2.94013" r="2.1055" transform="matrix(0.468192 -0.883627 -0.883627 -0.468192 371.189 268.65)" fill="#000004" stroke="#000004" stroke-width="1.66925"/>
<circle cx="2.94013" cy="2.94013" r="2.1055" transform="matrix(0.468192 -0.883627 -0.883627 -0.468192 250.724 106.664)" fill="#000004" stroke="#000004" stroke-width="1.66925"/>
<circle cx="2.94013" cy="2.94013" r="2.1055" transform="matrix(0.468192 -0.883627 -0.883627 -0.468192 101.378 360.266)" fill="#000004" stroke="#000004" stroke-width="1.66925"/>
<circle cx="2.94013" cy="2.94013" r="2.1055" transform="matrix(-0.944636 -0.328122 -0.328122 0.944636 390.111 198.312)" fill="#000004" stroke="#000004" stroke-width="1.66925"/>
<circle cx="2.94013" cy="2.94013" r="2.1055" transform="matrix(0.468192 -0.883627 -0.883627 -0.468192 40.3506 243.087)" fill="#000004" stroke="#000004" stroke-width="1.66925"/>
<circle cx="2.94013" cy="2.94013" r="2.1055" transform="matrix(0.468192 -0.883627 -0.883627 -0.468192 212.386 178.276)" fill="#000004" stroke="#000004" stroke-width="1.66925"/>
<circle cx="2.94013" cy="2.94013" r="2.1055" transform="matrix(0.468192 -0.883627 -0.883627 -0.468192 224.099 313.671)" fill="#000004" stroke="#000004" stroke-width="1.66925"/>
<circle cx="2.94013" cy="2.94013" r="2.1055" transform="matrix(0.468192 -0.883627 -0.883627 -0.468192 323.02 108.369)" fill="#000004" stroke="#000004" stroke-width="1.66925"/>
<circle cx="2.94013" cy="2.94013" r="2.1055" transform="matrix(0.468192 -0.883627 -0.883627 -0.468192 113.447 155.375)" fill="#000004" stroke="#000004" stroke-width="1.66925"/>
<circle cx="2.94013" cy="2.94013" r="2.1055" transform="matrix(0.468192 -0.883627 -0.883627 -0.468192 355.6 260.391)" fill="#000004" stroke="#000004" stroke-width="1.66925"/>
<circle cx="2.94013" cy="2.94013" r="2.1055" transform="matrix(0.468192 -0.883627 -0.883627 -0.468192 235.135 98.4043)" fill="#000004" stroke="#000004" stroke-width="1.66925"/>
<circle cx="2.94013" cy="2.94013" r="2.1055" transform="matrix(0.468192 -0.883627 -0.883627 -0.468192 109.48 351.251)" fill="#000004" stroke="#000004" stroke-width="1.66925"/>
<circle cx="2.94013" cy="2.94013" r="2.1055" transform="matrix(-0.944636 -0.328122 -0.328122 0.944636 385.332 190.765)" fill="#000004" stroke="#000004" stroke-width="1.66925"/>
<circle cx="2.94013" cy="2.94013" r="2.1055" transform="matrix(0.468192 -0.883627 -0.883627 -0.468192 48.4551 234.071)" fill="#000004" stroke="#000004" stroke-width="1.66925"/>
<circle cx="2.94013" cy="2.94013" r="2.1055" transform="matrix(0.468192 -0.883627 -0.883627 -0.468192 220.196 170.949)" fill="#000004" stroke="#000004" stroke-width="1.66925"/>
<circle cx="2.94013" cy="2.94013" r="2.1055" transform="matrix(0.468192 -0.883627 -0.883627 -0.468192 240.106 305.672)" fill="#000004" stroke="#000004" stroke-width="1.66925"/>
<circle cx="2.94013" cy="2.94013" r="2.1055" transform="matrix(0.468192 -0.883627 -0.883627 -0.468192 331.125 99.3531)" fill="#000004" stroke="#000004" stroke-width="1.66925"/>
<circle cx="2.94013" cy="2.94013" r="2.1055" transform="matrix(0.468192 -0.883627 -0.883627 -0.468192 121.474 149.646)" fill="#000004" stroke="#000004" stroke-width="1.66925"/>
<circle cx="2.94013" cy="2.94013" r="2.1055" transform="matrix(0.468192 -0.883627 -0.883627 -0.468192 363.625 254.66)" fill="#000004" stroke="#000004" stroke-width="1.66925"/>
<circle cx="2.94013" cy="2.94013" r="2.1055" transform="matrix(0.468192 -0.883627 -0.883627 -0.468192 243.165 92.6731)" fill="#000004" stroke="#000004" stroke-width="1.66925"/>
<circle cx="2.94013" cy="2.94013" r="2.1055" transform="matrix(0.468192 -0.883627 -0.883627 -0.468192 127.437 370.747)" fill="#000004" stroke="#000004" stroke-width="1.66925"/>
<circle cx="2.94013" cy="2.94013" r="2.1055" transform="matrix(0.468192 -0.883627 -0.883627 -0.468192 66.4096 253.568)" fill="#000004" stroke="#000004" stroke-width="1.66925"/>
<circle cx="2.94013" cy="2.94013" r="2.1055" transform="matrix(0.468192 -0.883627 -0.883627 -0.468192 139.504 165.855)" fill="#000004" stroke="#000004" stroke-width="1.66925"/>
<circle cx="2.94013" cy="2.94013" r="2.1055" transform="matrix(0.468192 -0.883627 -0.883627 -0.468192 378.905 276.065)" fill="#000004" stroke="#000004" stroke-width="1.66925"/>
<circle cx="2.94013" cy="2.94013" r="2.1055" transform="matrix(0.468192 -0.883627 -0.883627 -0.468192 256.372 117.978)" fill="#000004" stroke="#000004" stroke-width="1.66925"/>
<circle cx="2.94013" cy="2.94013" r="2.1055" transform="matrix(0.468192 -0.883627 -0.883627 -0.468192 405.49 133.642)" fill="#000004" stroke="#000004" stroke-width="1.66925"/>
<circle cx="2.94013" cy="2.94013" r="2.1055" transform="matrix(0.468192 -0.883627 -0.883627 -0.468192 404.196 150.949)" fill="#000004" stroke="#000004" stroke-width="1.66925"/>
<circle cx="2.94013" cy="2.94013" r="2.1055" transform="matrix(0.468192 -0.883627 -0.883627 -0.468192 414.027 153.262)" fill="#000004" stroke="#000004" stroke-width="1.66925"/>
<circle cx="2.94013" cy="2.94013" r="2.1055" transform="matrix(0.468192 -0.883627 -0.883627 -0.468192 413.114 136.143)" fill="#000004" stroke="#000004" stroke-width="1.66925"/>
<circle cx="2.94013" cy="2.94013" r="2.1055" transform="matrix(0.468192 -0.883627 -0.883627 -0.468192 420.909 140.273)" fill="#000004" stroke="#000004" stroke-width="1.66925"/>
<circle cx="2.94013" cy="2.94013" r="2.1055" transform="matrix(0.468192 -0.883627 -0.883627 -0.468192 420.609 125.14)" fill="#000004" stroke="#000004" stroke-width="1.66925"/>
<circle cx="2.94013" cy="2.94013" r="2.1055" transform="matrix(0.468192 -0.883627 -0.883627 -0.468192 405.473 125.441)" fill="#000004" stroke="#000004" stroke-width="1.66925"/>
<circle cx="2.94013" cy="2.94013" r="2.1055" transform="matrix(0.468192 -0.883627 -0.883627 -0.468192 396.196 133.949)" fill="#000004" stroke="#000004" stroke-width="1.66925"/>
<circle cx="2.94013" cy="2.94013" r="2.1055" transform="matrix(0.468192 -0.883627 -0.883627 -0.468192 402.196 115.949)" fill="#000004" stroke="#000004" stroke-width="1.66925"/>
<circle cx="2.94013" cy="2.94013" r="2.1055" transform="matrix(0.468192 -0.883627 -0.883627 -0.468192 414.194 118.411)" fill="#000004" stroke="#000004" stroke-width="1.66925"/>
<circle cx="2.94013" cy="2.94013" r="2.1055" transform="matrix(0.468192 -0.883627 -0.883627 -0.468192 407.687 143.249)" fill="#000004" stroke="#000004" stroke-width="1.66925"/>
<circle cx="2.94013" cy="2.94013" r="2.1055" transform="matrix(0.468192 -0.883627 -0.883627 -0.468192 425.265 150.896)" fill="#000004" stroke="#000004" stroke-width="1.66925"/>
<circle cx="2.94013" cy="2.94013" r="2.1055" transform="matrix(0.468192 -0.883627 -0.883627 -0.468192 111.159 363.786)" fill="#000004" stroke="#000004" stroke-width="1.66925"/>
<circle cx="2.94013" cy="2.94013" r="2.1055" transform="matrix(-0.944636 -0.328122 -0.328122 0.944636 392.098 188.11)" fill="#000004" stroke="#000004" stroke-width="1.66925"/>
<circle cx="2.94013" cy="2.94013" r="2.1055" transform="matrix(0.468192 -0.883627 -0.883627 -0.468192 52.2238 244.015)" fill="#000004" stroke="#000004" stroke-width="1.66925"/>
<circle cx="2.94013" cy="2.94013" r="2.1055" transform="matrix(0.468192 -0.883627 -0.883627 -0.468192 222.169 181.795)" fill="#000004" stroke="#000004" stroke-width="1.66925"/>
<circle cx="2.94013" cy="2.94013" r="2.1055" transform="matrix(0.468192 -0.883627 -0.883627 -0.468192 241.784 318.206)" fill="#000004" stroke="#000004" stroke-width="1.66925"/>
<circle cx="2.94013" cy="2.94013" r="2.1055" transform="matrix(0.468192 -0.883627 -0.883627 -0.468192 333.35 108.906)" fill="#000004" stroke="#000004" stroke-width="1.66925"/>
<circle cx="2.94013" cy="2.94013" r="2.1055" transform="matrix(0.468192 -0.883627 -0.883627 -0.468192 123.225 158.895)" fill="#000004" stroke="#000004" stroke-width="1.66925"/>
<circle cx="2.94013" cy="2.94013" r="2.1055" transform="matrix(0.468192 -0.883627 -0.883627 -0.468192 365.381 263.909)" fill="#000004" stroke="#000004" stroke-width="1.66925"/>
<circle cx="2.94013" cy="2.94013" r="2.1055" transform="matrix(0.468192 -0.883627 -0.883627 -0.468192 244.915 101.923)" fill="#000004" stroke="#000004" stroke-width="1.66925"/>
<circle cx="2.94013" cy="2.94013" r="2.1055" transform="matrix(0.468192 -0.883627 -0.883627 -0.468192 121.704 362.718)" fill="#000004" stroke="#000004" stroke-width="1.66925"/>
<circle cx="2.94013" cy="2.94013" r="2.1055" transform="matrix(-0.944636 -0.328122 -0.328122 0.944636 389.438 177.848)" fill="#000004" stroke="#000004" stroke-width="1.66925"/>
<circle cx="2.94013" cy="2.94013" r="2.1055" transform="matrix(0.468192 -0.883627 -0.883627 -0.468192 229.196 179.949)" fill="#000004" stroke="#000004" stroke-width="1.66925"/>
<circle cx="2.94013" cy="2.94013" r="2.1055" transform="matrix(0.468192 -0.883627 -0.883627 -0.468192 252.329 317.139)" fill="#000004" stroke="#000004" stroke-width="1.66925"/>
<circle cx="2.94013" cy="2.94013" r="2.1055" transform="matrix(0.468192 -0.883627 -0.883627 -0.468192 343.346 110.822)" fill="#000004" stroke="#000004" stroke-width="1.66925"/>
<circle cx="2.94013" cy="2.94013" r="2.1055" transform="matrix(0.468192 -0.883627 -0.883627 -0.468192 133.774 157.83)" fill="#000004" stroke="#000004" stroke-width="1.66925"/>
<circle cx="2.94013" cy="2.94013" r="2.1055" transform="matrix(0.468192 -0.883627 -0.883627 -0.468192 375.926 262.843)" fill="#000004" stroke="#000004" stroke-width="1.66925"/>
<circle cx="2.94013" cy="2.94013" r="2.1055" transform="matrix(0.468192 -0.883627 -0.883627 -0.468192 255.463 100.857)" fill="#000004" stroke="#000004" stroke-width="1.66925"/>
<circle cx="2.94013" cy="2.94013" r="2.1055" transform="matrix(0.468192 -0.883627 -0.883627 -0.468192 131.029 357.679)" fill="#000004" stroke="#000004" stroke-width="1.66925"/>
<circle cx="2.94013" cy="2.94013" r="2.1055" transform="matrix(-0.944636 -0.328122 -0.328122 0.944636 382.66 182.289)" fill="#000004" stroke="#000004" stroke-width="1.66925"/>
<circle cx="2.94013" cy="2.94013" r="2.1055" transform="matrix(0.468192 -0.883627 -0.883627 -0.468192 58.9263 236.292)" fill="#000004" stroke="#000004" stroke-width="1.66925"/>
<circle cx="2.94013" cy="2.94013" r="2.1055" transform="matrix(0.468192 -0.883627 -0.883627 -0.468192 255.995 329.062)" fill="#000004" stroke="#000004" stroke-width="1.66925"/>
<circle cx="2.94013" cy="2.94013" r="2.1055" transform="matrix(0.468192 -0.883627 -0.883627 -0.468192 347.012 122.745)" fill="#000004" stroke="#000004" stroke-width="1.66925"/>
<circle cx="2.94013" cy="2.94013" r="2.1055" transform="matrix(0.468192 -0.883627 -0.883627 -0.468192 128.498 381.293)" fill="#000004" stroke="#000004" stroke-width="1.66925"/>
<circle cx="2.94013" cy="2.94013" r="2.1055" transform="matrix(0.468192 -0.883627 -0.883627 -0.468192 114.811 181.055)" fill="#000004" stroke="#000004" stroke-width="1.66925"/>
<circle cx="2.94013" cy="2.94013" r="2.1055" transform="matrix(0.468192 -0.883627 -0.883627 -0.468192 356.967 286.07)" fill="#000004" stroke="#000004" stroke-width="1.66925"/>
<circle cx="2.94013" cy="2.94013" r="2.1055" transform="matrix(0.468192 -0.883627 -0.883627 -0.468192 236.502 124.084)" fill="#000004" stroke="#000004" stroke-width="1.66925"/>
<circle cx="2.94013" cy="2.94013" r="2.1055" transform="matrix(0.468192 -0.883627 -0.883627 -0.468192 106.416 369.593)" fill="#000004" stroke="#000004" stroke-width="1.66925"/>
<circle cx="2.94013" cy="2.94013" r="2.1055" transform="matrix(-0.944636 -0.328122 -0.328122 0.944636 398.562 191.91)" fill="#000004" stroke="#000004" stroke-width="1.66925"/>
<circle cx="2.94013" cy="2.94013" r="2.1055" transform="matrix(0.468192 -0.883627 -0.883627 -0.468192 45.3932 252.412)" fill="#000004" stroke="#000004" stroke-width="1.66925"/>
<circle cx="2.94013" cy="2.94013" r="2.1055" transform="matrix(0.468192 -0.883627 -0.883627 -0.468192 217.428 187.602)" fill="#000004" stroke="#000004" stroke-width="1.66925"/>
<circle cx="2.94013" cy="2.94013" r="2.1055" transform="matrix(0.468192 -0.883627 -0.883627 -0.468192 237.043 324.014)" fill="#000004" stroke="#000004" stroke-width="1.66925"/>
<circle cx="2.94013" cy="2.94013" r="2.1055" transform="matrix(0.468192 -0.883627 -0.883627 -0.468192 329.316 126.404)" fill="#000004" stroke="#000004" stroke-width="1.66925"/>
<circle cx="2.94013" cy="2.94013" r="2.1055" transform="matrix(0.468192 -0.883627 -0.883627 -0.468192 118.487 164.699)" fill="#000004" stroke="#000004" stroke-width="1.66925"/>
<circle cx="2.94013" cy="2.94013" r="2.1055" transform="matrix(0.468192 -0.883627 -0.883627 -0.468192 346.376 274.268)" fill="#000004" stroke="#000004" stroke-width="1.66925"/>
<circle cx="2.94013" cy="2.94013" r="2.1055" transform="matrix(0.468192 -0.883627 -0.883627 -0.468192 240.172 107.731)" fill="#000004" stroke="#000004" stroke-width="1.66925"/>
<circle cx="2.94013" cy="2.94013" r="2.1055" transform="matrix(0.468192 -0.883627 -0.883627 -0.468192 112.603 386.179)" fill="#000004" stroke="#000004" stroke-width="1.66925"/>
<circle cx="2.94013" cy="2.94013" r="2.1055" transform="matrix(0.468192 -0.883627 -0.883627 -0.468192 51.5801 268.999)" fill="#000004" stroke="#000004" stroke-width="1.66925"/>
<circle cx="2.94013" cy="2.94013" r="2.1055" transform="matrix(0.468192 -0.883627 -0.883627 -0.468192 217.883 196.161)" fill="#000004" stroke="#000004" stroke-width="1.66925"/>
<circle cx="2.94013" cy="2.94013" r="2.1055" transform="matrix(0.468192 -0.883627 -0.883627 -0.468192 243.228 340.599)" fill="#000004" stroke="#000004" stroke-width="1.66925"/>
<circle cx="2.94013" cy="2.94013" r="2.1055" transform="matrix(0.468192 -0.883627 -0.883627 -0.468192 334.247 134.28)" fill="#000004" stroke="#000004" stroke-width="1.66925"/>
<circle cx="2.94013" cy="2.94013" r="2.1055" transform="matrix(0.468192 -0.883627 -0.883627 -0.468192 124.671 181.288)" fill="#000004" stroke="#000004" stroke-width="1.66925"/>
<circle cx="2.94013" cy="2.94013" r="2.1055" transform="matrix(0.468192 -0.883627 -0.883627 -0.468192 366.825 286.303)" fill="#000004" stroke="#000004" stroke-width="1.66925"/>
<circle cx="2.94013" cy="2.94013" r="2.1055" transform="matrix(0.468192 -0.883627 -0.883627 -0.468192 246.36 124.318)" fill="#000004" stroke="#000004" stroke-width="1.66925"/>
<circle cx="2.94013" cy="2.94013" r="2.1055" transform="matrix(0.468192 -0.883627 -0.883627 -0.468192 98.3136 378.608)" fill="#000004" stroke="#000004" stroke-width="1.66925"/>
<circle cx="2.94013" cy="2.94013" r="2.1055" transform="matrix(-0.944636 -0.328122 -0.328122 0.944636 406.653 196.665)" fill="#000004" stroke="#000004" stroke-width="1.66925"/>
<circle cx="2.94013" cy="2.94013" r="2.1055" transform="matrix(0.468192 -0.883627 -0.883627 -0.468192 37.2879 261.428)" fill="#000004" stroke="#000004" stroke-width="1.66925"/>
<circle cx="2.94013" cy="2.94013" r="2.1055" transform="matrix(0.468192 -0.883627 -0.883627 -0.468192 210.091 192.032)" fill="#000004" stroke="#000004" stroke-width="1.66925"/>
<circle cx="2.94013" cy="2.94013" r="2.1055" transform="matrix(0.468192 -0.883627 -0.883627 -0.468192 228.939 333.028)" fill="#000004" stroke="#000004" stroke-width="1.66925"/>
<circle cx="2.94013" cy="2.94013" r="2.1055" transform="matrix(0.468192 -0.883627 -0.883627 -0.468192 110.384 173.716)" fill="#000004" stroke="#000004" stroke-width="1.66925"/>
<circle cx="2.94013" cy="2.94013" r="2.1055" transform="matrix(0.468192 -0.883627 -0.883627 -0.468192 352.535 278.732)" fill="#000004" stroke="#000004" stroke-width="1.66925"/>
<circle cx="2.94013" cy="2.94013" r="2.1055" transform="matrix(0.468192 -0.883627 -0.883627 -0.468192 232.068 116.746)" fill="#000004" stroke="#000004" stroke-width="1.66925"/>
<circle cx="2.94013" cy="2.94013" r="2.1055" transform="matrix(0.468192 -0.883627 -0.883627 -0.468192 92.6649 367.294)" fill="#000004" stroke="#000004" stroke-width="1.66925"/>
<circle cx="2.94013" cy="2.94013" r="2.1055" transform="matrix(-0.944636 -0.328122 -0.328122 0.944636 398.383 205.855)" fill="#000004" stroke="#000004" stroke-width="1.66925"/>
<circle cx="2.94013" cy="2.94013" r="2.1055" transform="matrix(0.468192 -0.883627 -0.883627 -0.468192 31.6372 250.115)" fill="#000004" stroke="#000004" stroke-width="1.66925"/>
<circle cx="2.94013" cy="2.94013" r="2.1055" transform="matrix(0.468192 -0.883627 -0.883627 -0.468192 203.671 185.306)" fill="#000004" stroke="#000004" stroke-width="1.66925"/>
<circle cx="2.94013" cy="2.94013" r="2.1055" transform="matrix(0.468192 -0.883627 -0.883627 -0.468192 223.287 321.714)" fill="#000004" stroke="#000004" stroke-width="1.66925"/>
<circle cx="2.94013" cy="2.94013" r="2.1055" transform="matrix(0.468192 -0.883627 -0.883627 -0.468192 314.303 115.399)" fill="#000004" stroke="#000004" stroke-width="1.66925"/>
<circle cx="2.94013" cy="2.94013" r="2.1055" transform="matrix(0.468192 -0.883627 -0.883627 -0.468192 104.731 162.404)" fill="#000004" stroke="#000004" stroke-width="1.66925"/>
<circle cx="2.94013" cy="2.94013" r="2.1055" transform="matrix(0.468192 -0.883627 -0.883627 -0.468192 361.097 278.277)" fill="#000004" stroke="#000004" stroke-width="1.66925"/>
<circle cx="2.94013" cy="2.94013" r="2.1055" transform="matrix(0.468192 -0.883627 -0.883627 -0.468192 226.419 105.433)" fill="#000004" stroke="#000004" stroke-width="1.66925"/>
<circle cx="2.94013" cy="2.94013" r="2.1055" transform="matrix(0.468192 -0.883627 -0.883627 -0.468192 96.338 350.942)" fill="#000004" stroke="#000004" stroke-width="1.66925"/>
<circle cx="2.94013" cy="2.94013" r="2.1055" transform="matrix(-0.944636 -0.328122 -0.328122 0.944636 382.195 202.007)" fill="#000004" stroke="#000004" stroke-width="1.66925"/>
<circle cx="2.94013" cy="2.94013" r="2.1055" transform="matrix(0.468192 -0.883627 -0.883627 -0.468192 35.3101 233.76)" fill="#000004" stroke="#000004" stroke-width="1.66925"/>
<circle cx="2.94013" cy="2.94013" r="2.1055" transform="matrix(0.468192 -0.883627 -0.883627 -0.468192 207.349 168.949)" fill="#000004" stroke="#000004" stroke-width="1.66925"/>
<circle cx="2.94013" cy="2.94013" r="2.1055" transform="matrix(0.468192 -0.883627 -0.883627 -0.468192 226.96 305.362)" fill="#000004" stroke="#000004" stroke-width="1.66925"/>
<circle cx="2.94013" cy="2.94013" r="2.1055" transform="matrix(0.468192 -0.883627 -0.883627 -0.468192 317.979 99.0459)" fill="#000004" stroke="#000004" stroke-width="1.66925"/>
<circle cx="2.94013" cy="2.94013" r="2.1055" transform="matrix(0.468192 -0.883627 -0.883627 -0.468192 130.904 279.42)" fill="#000004" stroke="#000004" stroke-width="1.66925"/>
<circle cx="2.94013" cy="2.94013" r="2.1055" transform="matrix(0.468192 -0.883627 -0.883627 -0.468192 124.252 282.552)" fill="#000004" stroke="#000004" stroke-width="1.66925"/>
<circle cx="2.94013" cy="2.94013" r="2.1055" transform="matrix(0.468192 -0.883627 -0.883627 -0.468192 116.004 269.862)" fill="#000004" stroke="#000004" stroke-width="1.66925"/>
<circle cx="2.94013" cy="2.94013" r="2.1055" transform="matrix(0.468192 -0.883627 -0.883627 -0.468192 125.942 266.807)" fill="#000004" stroke="#000004" stroke-width="1.66925"/>
<circle cx="2.94013" cy="2.94013" r="2.1055" transform="matrix(0.468192 -0.883627 -0.883627 -0.468192 113.781 280.33)" fill="#000004" stroke="#000004" stroke-width="1.66925"/>
<circle cx="2.94013" cy="2.94013" r="2.1055" transform="matrix(0.468192 -0.883627 -0.883627 -0.468192 134.494 294.629)" fill="#000004" stroke="#000004" stroke-width="1.66925"/>
<circle cx="2.94013" cy="2.94013" r="2.1055" transform="matrix(0.468192 -0.883627 -0.883627 -0.468192 120.768 275.388)" fill="#000004" stroke="#000004" stroke-width="1.66925"/>
<circle cx="2.94013" cy="2.94013" r="2.1055" transform="matrix(0.468192 -0.883627 -0.883627 -0.468192 118.834 261.381)" fill="#000004" stroke="#000004" stroke-width="1.66925"/>
<circle cx="2.94013" cy="2.94013" r="2.1055" transform="matrix(0.468192 -0.883627 -0.883627 -0.468192 106.069 272.916)" fill="#000004" stroke="#000004" stroke-width="1.66925"/>
<circle cx="2.94013" cy="2.94013" r="2.1055" transform="matrix(0.468192 -0.883627 -0.883627 -0.468192 126.006 291.799)" fill="#000004" stroke="#000004" stroke-width="1.66925"/>
<circle cx="2.94013" cy="2.94013" r="2.1055" transform="matrix(0.468192 -0.883627 -0.883627 -0.468192 116.146 291.568)" fill="#000004" stroke="#000004" stroke-width="1.66925"/>
<circle cx="2.94013" cy="2.94013" r="2.1055" transform="matrix(0.468192 -0.883627 -0.883627 -0.468192 140.764 279.653)" fill="#000004" stroke="#000004" stroke-width="1.66925"/>
</g>
</g>
<defs>
<clipPath id="clip0_651_3945">
<rect width="472" height="472" fill="white"/>
</clipPath>
</defs>
</svg>
